<?xml version="1.0" standalone="no"?>
<!DOCTYPE svg PUBLIC "-//W3C//DTD SVG 20010904//EN"
 "http://www.w3.org/TR/2001/REC-SVG-20010904/DTD/svg10.dtd">
<svg version="1.0" xmlns="http://www.w3.org/2000/svg"
 width="256.000000pt" height="256.000000pt" viewBox="0 0 256.000000 256.000000"
 preserveAspectRatio="xMidYMid meet">
<metadata>
Created by potrace 1.11, written by Peter Selinger 2001-2013
</metadata>
<g transform="translate(0.000000,256.000000) scale(0.100000,-0.100000)"
fill="#000000" stroke="none">
<path d="M150 2190 c-60 -7 -108 -37 -131 -82 -18 -36 -19 -70 -19 -824 0
-767 1 -789 20 -829 13 -27 34 -49 61 -64 l41 -23 1164 0 1165 0 38 25 c76 50
72 -1 69 899 l-3 803 -23 33 c-49 69 35 64 -1211 66 -619 0 -1146 -1 -1171 -4z"/>
</g>
</svg>
